<?xml version="1.0" encoding="utf-8"?>
<!-- Generator: Adobe Illustrator 15.1.0, SVG Export Plug-In . SVG Version: 6.00 Build 0)  -->
<!DOCTYPE svg PUBLIC "-//W3C//DTD SVG 1.1//EN" "http://www.w3.org/Graphics/SVG/1.1/DTD/svg11.dtd">
<svg version="1.1" id="Layer_1" xmlns="http://www.w3.org/2000/svg" xmlns:xlink="http://www.w3.org/1999/xlink" x="0px" y="0px"
	 width="900px" height="400px" viewBox="0 0 900 400" enable-background="new 0 0 900 400" xml:space="preserve">
<g id="delaunay">
	<path fill="none" stroke="#000000" stroke-width="0.1" stroke-linejoin="bevel" stroke-miterlimit="10" d="M-5.839,66.472
		l-0.137,0.151l-0.088,0.297L-5.839,66.472z"/>
	<path fill="none" stroke="#000000" stroke-width="0.1" stroke-linejoin="bevel" stroke-miterlimit="10" d="M-5.839,66.472
		l-0.226,0.448l-0.03,0.131L-5.839,66.472z"/>
	<path fill="none" stroke="#000000" stroke-width="0.1" stroke-linejoin="bevel" stroke-miterlimit="10" d="M-5.839,66.472
		l-0.255,0.58l3.008,1.581L-5.839,66.472z"/>
	<path fill="none" stroke="#000000" stroke-width="0.1" stroke-linejoin="bevel" stroke-miterlimit="10" d="M223.311,148.576
		l-78.168,48.335l-0.026,0.02L223.311,148.576z"/>
	<path fill="none" stroke="#000000" stroke-width="0.1" stroke-linejoin="bevel" stroke-miterlimit="10" d="M222.396,147.195
		l-77.252,49.716l78.168-48.335L222.396,147.195z"/>
	<path fill="none" stroke="#000000" stroke-width="0.1" stroke-linejoin="bevel" stroke-miterlimit="10" d="M222.396,147.195
		l0.916,1.381l-0.008-0.029L222.396,147.195z"/>
	<path fill="none" stroke="#000000" stroke-width="0.1" stroke-linejoin="bevel" stroke-miterlimit="10" d="M222.396,147.195
		l0.907,1.352l-0.002-0.021L222.396,147.195z"/>
	<path fill="none" stroke="#000000" stroke-width="0.1" stroke-linejoin="bevel" stroke-miterlimit="10" d="M222.396,147.195
		l0.905,1.331l-0.031-0.952L222.396,147.195z"/>
	<path fill="none" stroke="#000000" stroke-width="0.1" stroke-linejoin="bevel" stroke-miterlimit="10" d="M223.986,146.098
		l-1.59,1.097l0.874,0.379L223.986,146.098z"/>
	<path fill="none" stroke="#000000" stroke-width="0.1" stroke-linejoin="bevel" stroke-miterlimit="10" d="M223.986,146.098
		l-0.717,1.476l0.125,0L223.986,146.098z"/>
	<path fill="none" stroke="#000000" stroke-width="0.1" stroke-linejoin="bevel" stroke-miterlimit="10" d="M223.986,146.098
		l-0.591,1.477l0.023,0.008L223.986,146.098z"/>
	<path fill="none" stroke="#000000" stroke-width="0.1" stroke-linejoin="bevel" stroke-miterlimit="10" d="M223.986,146.098
		l-0.568,1.484l-0.107,0.994L223.986,146.098z"/>
	<path fill="none" stroke="#000000" stroke-width="0.1" stroke-linejoin="bevel" stroke-miterlimit="10" d="M223.418,147.582
		l-0.118,0.943l0.011,0.051L223.418,147.582z"/>
	<path fill="none" stroke="#000000" stroke-width="0.1" stroke-linejoin="bevel" stroke-miterlimit="10" d="M225.958,144.122
		l-0.661,0.152l-1.312,1.824L225.958,144.122z"/>
	<path fill="none" stroke="#000000" stroke-width="0.1" stroke-linejoin="bevel" stroke-miterlimit="10" d="M225.958,144.122
		l-1.972,1.976l-0.675,2.479L225.958,144.122z"/>
	<path fill="none" stroke="#000000" stroke-width="0.1" stroke-linejoin="bevel" stroke-miterlimit="10" d="M225.297,144.274
		l-2.902,2.921l1.59-1.097L225.297,144.274z"/>
	<path fill="none" stroke="#000000" stroke-width="0.1" stroke-linejoin="bevel" stroke-miterlimit="10" d="M223.269,147.574
		l0.031,0.952l0.118-0.943L223.269,147.574z"/>
	<path fill="none" stroke="#000000" stroke-width="0.1" stroke-linejoin="bevel" stroke-miterlimit="10" d="M223.269,147.574
		l0.149,0.008l-0.023-0.008L223.269,147.574z"/>
	<path fill="none" stroke="#000000" stroke-width="0.1" stroke-linejoin="bevel" stroke-miterlimit="10" d="M223.3,148.525
		l0.002,0.021l0.008,0.029L223.3,148.525z"/>
	<path fill="none" stroke="#000000" stroke-width="0.1" stroke-linejoin="bevel" stroke-miterlimit="10" d="M-3.086,68.632
		l-2.514,2.872l150.717,125.427L-3.086,68.632z"/>
	<path fill="none" stroke="#000000" stroke-width="0.1" stroke-linejoin="bevel" stroke-miterlimit="10" d="M-3.086,68.632
		l148.203,128.299l0.026-0.02L-3.086,68.632z"/>
	<path fill="none" stroke="#000000" stroke-width="0.1" stroke-linejoin="bevel" stroke-miterlimit="10" d="M-3.086,68.632
		l148.229,128.279l77.252-49.716L-3.086,68.632z"/>
	<path fill="none" stroke="#000000" stroke-width="0.1" stroke-linejoin="bevel" stroke-miterlimit="10" d="M-6.095,67.051
		l0.397,4.472l0.097-0.019L-6.095,67.051z"/>
	<path fill="none" stroke="#000000" stroke-width="0.1" stroke-linejoin="bevel" stroke-miterlimit="10" d="M-6.095,67.051
		l0.494,4.453l0,0L-6.095,67.051z"/>
	<path fill="none" stroke="#000000" stroke-width="0.1" stroke-linejoin="bevel" stroke-miterlimit="10" d="M-6.095,67.051
		l0.494,4.453l0,0L-6.095,67.051z"/>
	<path fill="none" stroke="#000000" stroke-width="0.1" stroke-linejoin="bevel" stroke-miterlimit="10" d="M-6.095,67.051
		l0.494,4.453l0,0L-6.095,67.051z"/>
	<path fill="none" stroke="#000000" stroke-width="0.1" stroke-linejoin="bevel" stroke-miterlimit="10" d="M-6.095,67.051
		l0.494,4.453l0,0L-6.095,67.051z"/>
	<path fill="none" stroke="#000000" stroke-width="0.1" stroke-linejoin="bevel" stroke-miterlimit="10" d="M-6.095,67.051
		l0.494,4.453l0,0L-6.095,67.051z"/>
	<path fill="none" stroke="#000000" stroke-width="0.1" stroke-linejoin="bevel" stroke-miterlimit="10" d="M-6.095,67.051
		l0.494,4.453l57.786,110.179L-6.095,67.051z"/>
	<path fill="none" stroke="#000000" stroke-width="0.1" stroke-linejoin="bevel" stroke-miterlimit="10" d="M-6.095,67.051
		l58.28,114.632L-3.086,68.632L-6.095,67.051z"/>
	<path fill="none" stroke="#000000" stroke-width="0.1" stroke-linejoin="bevel" stroke-miterlimit="10" d="M1680.133-400.378
		l-0.048,0.006l-0.058,0.039L1680.133-400.378z"/>
	<path fill="none" stroke="#000000" stroke-width="0.1" stroke-linejoin="bevel" stroke-miterlimit="10" d="M1680.027-400.333
		L697.029-23.173l-0.083,0.796L1680.027-400.333z"/>
	<path fill="none" stroke="#000000" stroke-width="0.1" stroke-linejoin="bevel" stroke-miterlimit="10" d="M1684.816-437.978
		L251.54,4.099l354.417-18.971L1684.816-437.978z"/>
	<path fill="none" stroke="#000000" stroke-width="0.1" stroke-linejoin="bevel" stroke-miterlimit="10" d="M1684.816-437.978
		L605.957-14.872l91.072-8.301L1684.816-437.978z"/>
	<path fill="none" stroke="#000000" stroke-width="0.1" stroke-linejoin="bevel" stroke-miterlimit="10" d="M1684.816-437.978
		L697.029-23.173l982.998-377.16L1684.816-437.978z"/>
	<path fill="none" stroke="#000000" stroke-width="0.1" stroke-linejoin="bevel" stroke-miterlimit="10" d="M1684.816-437.978
		l-4.789,37.645l0.058-0.039L1684.816-437.978z"/>
	<path fill="none" stroke="#000000" stroke-width="0.1" stroke-linejoin="bevel" stroke-miterlimit="10" d="M1684.816-437.978
		l-4.731,37.606l0.048-0.006L1684.816-437.978z"/>
	<path fill="none" stroke="#000000" stroke-width="0.1" stroke-linejoin="bevel" stroke-miterlimit="10" d="M1685.097-438.092
		l-0.28,0.114l-4.684,37.6L1685.097-438.092z"/>
	<path fill="none" stroke="#000000" stroke-width="0.1" stroke-linejoin="bevel" stroke-miterlimit="10" d="M1685.101-438.115
		L-5.724,66.174L251.54,4.099L1685.101-438.115z"/>
	<path fill="none" stroke="#000000" stroke-width="0.1" stroke-linejoin="bevel" stroke-miterlimit="10" d="M1685.101-438.115
		L251.54,4.099l1433.277-442.077L1685.101-438.115z"/>
	<path fill="none" stroke="#000000" stroke-width="0.1" stroke-linejoin="bevel" stroke-miterlimit="10" d="M1685.101-438.115
		l-0.284,0.137l0.28-0.114L1685.101-438.115z"/>
	<path fill="none" stroke="#000000" stroke-width="0.1" stroke-linejoin="bevel" stroke-miterlimit="10" d="M1685.101-438.115
		l-0.004,0.023l0,0L1685.101-438.115z"/>
	<path fill="none" stroke="#000000" stroke-width="0.1" stroke-linejoin="bevel" stroke-miterlimit="10" d="M1685.101-438.115
		l-0.004,0.023l-4.964,37.714L1685.101-438.115z"/>
	<path fill="none" stroke="#000000" stroke-width="0.1" stroke-linejoin="bevel" stroke-miterlimit="10" d="M1685.101-438.115
		l-4.968,37.737l90.007,54.22L1685.101-438.115z"/>
	<path fill="none" stroke="#000000" stroke-width="0.1" stroke-linejoin="bevel" stroke-miterlimit="10" d="M-5.601,71.504
		l-0.097,0.019l57.883,110.16L-5.601,71.504z"/>
	<path fill="none" stroke="#000000" stroke-width="0.1" stroke-linejoin="bevel" stroke-miterlimit="10" d="M-5.724,66.174
		l-0.253,0.449l0.137-0.151L-5.724,66.174z"/>
	<path fill="none" stroke="#000000" stroke-width="0.1" stroke-linejoin="bevel" stroke-miterlimit="10" d="M-5.724,66.174
		l-0.116,0.297l2.753,2.16L-5.724,66.174z"/>
	<path fill="none" stroke="#000000" stroke-width="0.1" stroke-linejoin="bevel" stroke-miterlimit="10" d="M251.54,4.099
		L-5.724,66.174l2.637,2.458L251.54,4.099z"/>
	<path fill="none" stroke="#000000" stroke-width="0.1" stroke-linejoin="bevel" stroke-miterlimit="10" d="M251.54,4.099
		L-3.086,68.632l225.482,78.563L251.54,4.099z"/>
	<path fill="none" stroke="#000000" stroke-width="0.1" stroke-linejoin="bevel" stroke-miterlimit="10" d="M251.54,4.099
		l-29.144,143.096l2.902-2.921L251.54,4.099z"/>
	<path fill="none" stroke="#000000" stroke-width="0.1" stroke-linejoin="bevel" stroke-miterlimit="10" d="M251.54,4.099
		l-26.242,140.175l0.661-0.152L251.54,4.099z"/>
	<path fill="none" stroke="#000000" stroke-width="0.1" stroke-linejoin="bevel" stroke-miterlimit="10" d="M605.957-14.872
		L605.957-14.872l3.784,1.662L605.957-14.872z"/>
	<path fill="none" stroke="#000000" stroke-width="0.1" stroke-linejoin="bevel" stroke-miterlimit="10" d="M605.957-14.872
		l3.784,1.662l-0.216-0.38L605.957-14.872z"/>
	<path fill="none" stroke="#000000" stroke-width="0.1" stroke-linejoin="bevel" stroke-miterlimit="10" d="M605.957-14.872
		l3.568,1.282l-0.025-0.122L605.957-14.872z"/>
	<path fill="none" stroke="#000000" stroke-width="0.1" stroke-linejoin="bevel" stroke-miterlimit="10" d="M609.576-13.581
		l0.165,0.371l0.57-0.066L609.576-13.581z"/>
	<path fill="none" stroke="#000000" stroke-width="0.1" stroke-linejoin="bevel" stroke-miterlimit="10" d="M609.576-13.581
		l0.735,0.305l0.109-0.058L609.576-13.581z"/>
	<path fill="none" stroke="#000000" stroke-width="0.1" stroke-linejoin="bevel" stroke-miterlimit="10" d="M609.5-13.711
		l0.025,0.122l0.051,0.009L609.5-13.711z"/>
	<path fill="none" stroke="#000000" stroke-width="0.1" stroke-linejoin="bevel" stroke-miterlimit="10" d="M609.5-13.711
		l0.076,0.13l0.845,0.247L609.5-13.711z"/>
	<path fill="none" stroke="#000000" stroke-width="0.1" stroke-linejoin="bevel" stroke-miterlimit="10" d="M609.5-13.711
		l0.921,0.377l0.01-0.004L609.5-13.711z"/>
	<path fill="none" stroke="#000000" stroke-width="0.1" stroke-linejoin="bevel" stroke-miterlimit="10" d="M609.5-13.711
		l0.931,0.373l0.068,0.016L609.5-13.711z"/>
	<path fill="none" stroke="#000000" stroke-width="0.1" stroke-linejoin="bevel" stroke-miterlimit="10" d="M609.525-13.59
		l0.216,0.38l-0.165-0.371L609.525-13.59z"/>
	<path fill="none" stroke="#000000" stroke-width="0.1" stroke-linejoin="bevel" stroke-miterlimit="10" d="M610.481-13.303
		l-0.001,0.061l0.027-0.022L610.481-13.303z"/>
	<path fill="none" stroke="#000000" stroke-width="0.1" stroke-linejoin="bevel" stroke-miterlimit="10" d="M610.431-13.338
		l-0.01,0.004l0.061,0.031L610.431-13.338z"/>
	<path fill="none" stroke="#000000" stroke-width="0.1" stroke-linejoin="bevel" stroke-miterlimit="10" d="M610.431-13.338
		l0.051,0.035l0.018-0.019L610.431-13.338z"/>
	<path fill="none" stroke="#000000" stroke-width="0.1" stroke-linejoin="bevel" stroke-miterlimit="10" d="M610.499-13.322
		l-0.018,0.019l0.026,0.039L610.499-13.322z"/>
	<path fill="none" stroke="#000000" stroke-width="0.1" stroke-linejoin="bevel" stroke-miterlimit="10" d="M610.421-13.334
		l-0.109,0.058l0.169,0.034L610.421-13.334z"/>
	<path fill="none" stroke="#000000" stroke-width="0.1" stroke-linejoin="bevel" stroke-miterlimit="10" d="M610.421-13.334
		l0.06,0.092l0.001-0.061L610.421-13.334z"/>
	<path fill="none" stroke="#000000" stroke-width="0.1" stroke-linejoin="bevel" stroke-miterlimit="10" d="M610.312-13.276
		l-0.57,0.066l0.739-0.033L610.312-13.276z"/>
	<path fill="none" stroke="#000000" stroke-width="0.1" stroke-linejoin="bevel" stroke-miterlimit="10" d="M605.957-14.872
		L251.54,4.099l-25.582,140.023L605.957-14.872z"/>
	<path fill="none" stroke="#000000" stroke-width="0.1" stroke-linejoin="bevel" stroke-miterlimit="10" d="M605.957-14.872
		L225.958,144.122l-2.647,4.455L605.957-14.872z"/>
	<path fill="none" stroke="#000000" stroke-width="0.1" stroke-linejoin="bevel" stroke-miterlimit="10" d="M605.957-14.872
		L223.311,148.576l-78.194,48.355L605.957-14.872z"/>
	<path fill="none" stroke="#000000" stroke-width="0.1" stroke-linejoin="bevel" stroke-miterlimit="10" d="M696.752-20.786
		l-86.244,7.521l-0.027,0.022L696.752-20.786z"/>
	<path fill="none" stroke="#000000" stroke-width="0.1" stroke-linejoin="bevel" stroke-miterlimit="10" d="M696.752-20.786
		l-86.271,7.543l89.437-6.094L696.752-20.786z"/>
	<path fill="none" stroke="#000000" stroke-width="0.1" stroke-linejoin="bevel" stroke-miterlimit="10" d="M697.029-23.173
		l-91.072,8.301l0,0L697.029-23.173z"/>
	<path fill="none" stroke="#000000" stroke-width="0.1" stroke-linejoin="bevel" stroke-miterlimit="10" d="M697.029-23.173
		l-91.072,8.301l3.543,1.161L697.029-23.173z"/>
	<path fill="none" stroke="#000000" stroke-width="0.1" stroke-linejoin="bevel" stroke-miterlimit="10" d="M697.029-23.173
		L609.5-13.711l0.999,0.389L697.029-23.173z"/>
	<path fill="none" stroke="#000000" stroke-width="0.1" stroke-linejoin="bevel" stroke-miterlimit="10" d="M697.029-23.173
		l-86.53,9.851l86.219-9.204L697.029-23.173z"/>
	<path fill="none" stroke="#000000" stroke-width="0.1" stroke-linejoin="bevel" stroke-miterlimit="10" d="M697.029-23.173
		l-0.312,0.647l0.091-0.066L697.029-23.173z"/>
	<path fill="none" stroke="#000000" stroke-width="0.1" stroke-linejoin="bevel" stroke-miterlimit="10" d="M697.029-23.173
		l-0.221,0.581l0.165-0.103L697.029-23.173z"/>
	<path fill="none" stroke="#000000" stroke-width="0.1" stroke-linejoin="bevel" stroke-miterlimit="10" d="M697.029-23.173
		l-0.056,0.478l-0.027,0.318L697.029-23.173z"/>
	<path fill="none" stroke="#000000" stroke-width="0.1" stroke-linejoin="bevel" stroke-miterlimit="10" d="M696.947-22.374
		l-0.203,0.011l0.186,0.46L696.947-22.374z"/>
	<path fill="none" stroke="#000000" stroke-width="0.1" stroke-linejoin="bevel" stroke-miterlimit="10" d="M696.947-22.374
		l-0.018,0.471l0.071,0.028L696.947-22.374z"/>
	<path fill="none" stroke="#000000" stroke-width="0.1" stroke-linejoin="bevel" stroke-miterlimit="10" d="M696.947-22.374
		l0.054,0.5l2.916,2.537L696.947-22.374z"/>
	<path fill="none" stroke="#000000" stroke-width="0.1" stroke-linejoin="bevel" stroke-miterlimit="10" d="M697.001-21.874
		l-0.023,0.077l0.015,0.216L697.001-21.874z"/>
	<path fill="none" stroke="#000000" stroke-width="0.1" stroke-linejoin="bevel" stroke-miterlimit="10" d="M697.001-21.874
		l-0.009,0.293l2.925,2.244L697.001-21.874z"/>
	<path fill="none" stroke="#000000" stroke-width="0.1" stroke-linejoin="bevel" stroke-miterlimit="10" d="M696.93-21.902
		l-0.176,0.225l0.116,0.006L696.93-21.902z"/>
	<path fill="none" stroke="#000000" stroke-width="0.1" stroke-linejoin="bevel" stroke-miterlimit="10" d="M696.93-21.902
		l-0.06,0.231l0.107-0.126L696.93-21.902z"/>
	<path fill="none" stroke="#000000" stroke-width="0.1" stroke-linejoin="bevel" stroke-miterlimit="10" d="M696.93-21.902
		l0.048,0.105l0.023-0.077L696.93-21.902z"/>
	<path fill="none" stroke="#000000" stroke-width="0.1" stroke-linejoin="bevel" stroke-miterlimit="10" d="M696.978-21.797
		l-0.107,0.126l0.077,0.074L696.978-21.797z"/>
	<path fill="none" stroke="#000000" stroke-width="0.1" stroke-linejoin="bevel" stroke-miterlimit="10" d="M696.978-21.797
		l-0.03,0.2l0.045,0.017L696.978-21.797z"/>
	<path fill="none" stroke="#000000" stroke-width="0.1" stroke-linejoin="bevel" stroke-miterlimit="10" d="M696.947-21.598
		l-0.366,0.254l0.033,0.069L696.947-21.598z"/>
	<path fill="none" stroke="#000000" stroke-width="0.1" stroke-linejoin="bevel" stroke-miterlimit="10" d="M696.947-21.598
		l-0.333,0.323l0.375-0.299L696.947-21.598z"/>
	<path fill="none" stroke="#000000" stroke-width="0.1" stroke-linejoin="bevel" stroke-miterlimit="10" d="M696.947-21.598
		l0.042,0.023l0.003-0.007L696.947-21.598z"/>
	<path fill="none" stroke="#000000" stroke-width="0.1" stroke-linejoin="bevel" stroke-miterlimit="10" d="M696.992-21.581
		l-0.003,0.007l2.928,2.237L696.992-21.581z"/>
	<path fill="none" stroke="#000000" stroke-width="0.1" stroke-linejoin="bevel" stroke-miterlimit="10" d="M696.989-21.574
		l-0.375,0.299l0.045,0.11L696.989-21.574z"/>
	<path fill="none" stroke="#000000" stroke-width="0.1" stroke-linejoin="bevel" stroke-miterlimit="10" d="M696.989-21.574
		l-0.33,0.409l0.093,0.379L696.989-21.574z"/>
	<path fill="none" stroke="#000000" stroke-width="0.1" stroke-linejoin="bevel" stroke-miterlimit="10" d="M696.989-21.574
		l-0.237,0.788l3.165,1.449L696.989-21.574z"/>
	<path fill="none" stroke="#000000" stroke-width="0.1" stroke-linejoin="bevel" stroke-miterlimit="10" d="M696.581-21.344
		l-86.082,8.021l0.009,0.058L696.581-21.344z"/>
	<path fill="none" stroke="#000000" stroke-width="0.1" stroke-linejoin="bevel" stroke-miterlimit="10" d="M696.581-21.344
		l-86.073,8.079l86.244-7.521L696.581-21.344z"/>
	<path fill="none" stroke="#000000" stroke-width="0.1" stroke-linejoin="bevel" stroke-miterlimit="10" d="M696.581-21.344
		l0.171,0.558l-0.138-0.489L696.581-21.344z"/>
	<path fill="none" stroke="#000000" stroke-width="0.1" stroke-linejoin="bevel" stroke-miterlimit="10" d="M696.614-21.275
		l0.138,0.489l-0.093-0.379L696.614-21.275z"/>
	<path fill="none" stroke="#000000" stroke-width="0.1" stroke-linejoin="bevel" stroke-miterlimit="10" d="M696.754-21.678
		l-0.173,0.334l0.366-0.254L696.754-21.678z"/>
	<path fill="none" stroke="#000000" stroke-width="0.1" stroke-linejoin="bevel" stroke-miterlimit="10" d="M696.754-21.678
		l0.193,0.08l-0.09-0.069L696.754-21.678z"/>
	<path fill="none" stroke="#000000" stroke-width="0.1" stroke-linejoin="bevel" stroke-miterlimit="10" d="M696.754-21.678
		l0.104,0.011l0.013-0.005L696.754-21.678z"/>
	<path fill="none" stroke="#000000" stroke-width="0.1" stroke-linejoin="bevel" stroke-miterlimit="10" d="M696.87-21.671
		l-0.013,0.005l0.09,0.069L696.87-21.671z"/>
	<path fill="none" stroke="#000000" stroke-width="0.1" stroke-linejoin="bevel" stroke-miterlimit="10" d="M696.718-22.526
		l-86.219,9.204l86.2-9.09L696.718-22.526z"/>
	<path fill="none" stroke="#000000" stroke-width="0.1" stroke-linejoin="bevel" stroke-miterlimit="10" d="M696.718-22.526
		l-0.019,0.114l0.031-0.107L696.718-22.526z"/>
	<path fill="none" stroke="#000000" stroke-width="0.1" stroke-linejoin="bevel" stroke-miterlimit="10" d="M696.73-22.519
		l-0.031,0.107l0.045,0.05L696.73-22.519z"/>
	<path fill="none" stroke="#000000" stroke-width="0.1" stroke-linejoin="bevel" stroke-miterlimit="10" d="M696.73-22.519
		l0.014,0.157l0.202-0.014L696.73-22.519z"/>
	<path fill="none" stroke="#000000" stroke-width="0.1" stroke-linejoin="bevel" stroke-miterlimit="10" d="M696.699-22.412
		l-86.2,9.09l86.082-8.021L696.699-22.412z"/>
	<path fill="none" stroke="#000000" stroke-width="0.1" stroke-linejoin="bevel" stroke-miterlimit="10" d="M696.699-22.412
		l-0.118,1.068l0.173-0.334L696.699-22.412z"/>
	<path fill="none" stroke="#000000" stroke-width="0.1" stroke-linejoin="bevel" stroke-miterlimit="10" d="M696.699-22.412
		l0.055,0.734l-0.01-0.685L696.699-22.412z"/>
	<path fill="none" stroke="#000000" stroke-width="0.1" stroke-linejoin="bevel" stroke-miterlimit="10" d="M696.744-22.362
		l0.01,0.685l0.176-0.225L696.744-22.362z"/>
	<path fill="none" stroke="#000000" stroke-width="0.1" stroke-linejoin="bevel" stroke-miterlimit="10" d="M696.946-22.376
		l-0.202,0.014l0.203-0.011L696.946-22.376z"/>
	<path fill="none" stroke="#000000" stroke-width="0.1" stroke-linejoin="bevel" stroke-miterlimit="10" d="M696.946-22.376
		l0.001,0.003l2.97,3.037L696.946-22.376z"/>
	<path fill="none" stroke="#000000" stroke-width="0.1" stroke-linejoin="bevel" stroke-miterlimit="10" d="M696.974-22.695
		l-0.165,0.103l0.138,0.216L696.974-22.695z"/>
	<path fill="none" stroke="#000000" stroke-width="0.1" stroke-linejoin="bevel" stroke-miterlimit="10" d="M696.809-22.592
		l-0.091,0.066l0.013,0.007L696.809-22.592z"/>
	<path fill="none" stroke="#000000" stroke-width="0.1" stroke-linejoin="bevel" stroke-miterlimit="10" d="M696.809-22.592
		l-0.078,0.073l0.216,0.143L696.809-22.592z"/>
	<path fill="none" stroke="#000000" stroke-width="0.1" stroke-linejoin="bevel" stroke-miterlimit="10" d="M696.809-22.592
		l0.138,0.216l0,0L696.809-22.592z"/>
	<path fill="none" stroke="#000000" stroke-width="0.1" stroke-linejoin="bevel" stroke-miterlimit="10" d="M696.809-22.592
		l0.138,0.216l2.971,3.04L696.809-22.592z"/>
</g>
</svg>
