<svg width="400px" height="400px"><g id="delaunay"><path d="M249.2710707394067,126.51455128267757L150.44101624942087,126.03784479885262L83.62344685849082,0.009320412732904515Z"></path><path d="M213.17902938876387,211.94664314759382L150.44101624942087,126.03784479885262L249.2710707394067,126.51455128267757Z"></path><path d="M213.17902938876387,211.94664314759382L249.2710707394067,126.51455128267757L280.3738953760559,129.67548948764505Z"></path><path d="M132.42132111107168,236.49354339603153L101.2124886151696,221.09646525847694L150.44101624942087,126.03784479885262Z"></path><path d="M132.42132111107168,236.49354339603153L150.44101624942087,126.03784479885262L213.17902938876387,211.94664314759382Z"></path><path d="M87.96669368846533,213.47598978653738L87.96571012426189,213.4678545836152L87.96631850475246,213.46380516665565Z"></path><path d="M119.06539089479188,293.34871246218444L91.23520084112909,261.1342680693157L132.42132111107168,236.49354339603153Z"></path><path d="M119.06539089479188,293.34871246218444L132.42132111107168,236.49354339603153L213.17902938876387,211.94664314759382Z"></path><path d="M119.06539089479188,293.34871246218444L213.17902938876387,211.94664314759382L260.9906937189714,257.7855088939458Z"></path><path d="M119.06539089479188,293.34871246218444L260.9906937189714,257.7855088939458L272.75137479851884,284.89141999562065Z"></path><path d="M87.96352278630397,213.47866043794903L83.62344685849082,0.009320412732904515L87.96631850475246,213.46380516665565Z"></path><path d="M87.96352278630397,213.47866043794903L87.96631850475246,213.46380516665565L87.96571012426189,213.4678545836152Z"></path><path d="M87.96352278630397,213.47866043794903L87.96571012426189,213.4678545836152L87.96669368846533,213.47598978653738Z"></path><path d="M87.96631850475246,213.46380516665565L83.62344685849082,0.009320412732904515L150.44101624942087,126.03784479885262Z"></path><path d="M91.23520084112909,261.1342680693157L87.96352278630397,213.47866043794903L101.2124886151696,221.09646525847694Z"></path><path d="M91.23520084112909,261.1342680693157L101.2124886151696,221.09646525847694L132.42132111107168,236.49354339603153Z"></path><path d="M316.3735476679658,267.28102654135057L305.03311198850145,266.34295979624386L300.754270242948,262.2453746162515Z"></path><path d="M316.3735476679658,267.28102654135057L300.754270242948,262.2453746162515L280.3738953760559,129.67548948764505Z"></path><path d="M299.1269432826178,282.5645689333076L280.82374149553334,254.86532676715473L300.754270242948,262.2453746162515Z"></path><path d="M299.1269432826178,282.5645689333076L300.754270242948,262.2453746162515L305.03311198850145,266.34295979624386Z"></path><path d="M299.1269432826178,282.5645689333076L305.03311198850145,266.34295979624386L316.3735476679658,267.28102654135057Z"></path><path d="M300.754270242948,262.2453746162515L280.82374149553334,254.86532676715473L280.3738953760559,129.67548948764505Z"></path><path d="M101.2124886151696,221.09646525847694L87.96352278630397,213.47866043794903L87.96669368846533,213.47598978653738Z"></path><path d="M101.2124886151696,221.09646525847694L87.96669368846533,213.47598978653738L87.96631850475246,213.46380516665565Z"></path><path d="M101.2124886151696,221.09646525847694L87.96631850475246,213.46380516665565L150.44101624942087,126.03784479885262Z"></path><path d="M272.75137479851884,284.89141999562065L260.9906937189714,257.7855088939458L280.82374149553334,254.86532676715473Z"></path><path d="M272.75137479851884,284.89141999562065L280.82374149553334,254.86532676715473L299.1269432826178,282.5645689333076Z"></path><path d="M260.9906937189714,257.7855088939458L213.17902938876387,211.94664314759382L280.3738953760559,129.67548948764505Z"></path><path d="M260.9906937189714,257.7855088939458L280.3738953760559,129.67548948764505L280.82374149553334,254.86532676715473Z"></path><path d="M280.3738953760559,129.67548948764505L249.2710707394067,126.51455128267757L83.62344685849082,0.009320412732904515Z"></path><path d="M219.8536667710194,399.99014961461955L119.06539089479188,293.34871246218444L272.75137479851884,284.89141999562065Z"></path><path d="M219.8536667710194,399.99014961461955L272.75137479851884,284.89141999562065L299.1269432826178,282.5645689333076Z"></path><path d="M219.8536667710194,399.99014961461955L299.1269432826178,282.5645689333076L316.3735476679658,267.28102654135057Z"></path></g></svg>