<svg width="400px" height="400px"><g id="delaunay"><path d="M251.51315978542914,399.9929957941509L182.83581592584892,337.4160468965864L233.71548664933954,363.2478051687039Z"></path><path d="M251.51315978542914,399.9929957941509L233.71548664933954,363.2478051687039L307.03749468028815,271.97922408634827Z"></path><path d="M251.51315978542914,399.9929957941509L307.03749468028815,271.97922408634827L345.6764613517877,286.8460171463272Z"></path><path d="M182.83581592584892,337.4160468965864L105.94186497760917,257.81304341871936L196.86343587512505,230.11530750039645Z"></path><path d="M182.83581592584892,337.4160468965864L196.86343587512505,230.11530750039645L238.3405225982608,273.39058413364756Z"></path><path d="M233.71548664933954,363.2478051687039L182.83581592584892,337.4160468965864L238.3405225982608,273.39058413364756Z"></path><path d="M233.71548664933954,363.2478051687039L238.3405225982608,273.39058413364756L307.03749468028815,271.97922408634827Z"></path><path d="M105.94186497760917,257.81304341871936L54.323293604620005,192.71077050085802L70.55609790425933,198.48411114025336Z"></path><path d="M105.94186497760917,257.81304341871936L70.55609790425933,198.48411114025336L142.53155192416162,178.32836428982873Z"></path><path d="M105.94186497760917,257.81304341871936L142.53155192416162,178.32836428982873L196.86343587512505,230.11530750039645Z"></path><path d="M70.55609790425933,198.48411114025336L54.323293604620005,192.71077050085802L142.53155192416162,178.32836428982873Z"></path><path d="M54.323293604620005,192.71077050085802L331.31750570835806,3.126388037344441e-13L252.57157477914285,97.64650877648911Z"></path><path d="M54.323293604620005,192.71077050085802L252.57157477914285,97.64650877648911L142.53155192416162,178.32836428982873Z"></path><path d="M345.6764613517877,286.8460171463272L307.03749468028815,271.97922408634827L331.31750570835806,3.126388037344441e-13Z"></path><path d="M307.03749468028815,271.97922408634827L252.57157477914285,97.64650877648911L331.31750570835806,3.126388037344441e-13Z"></path><path d="M196.86343587512505,230.11530750039645L142.53155192416162,178.32836428982873L252.57157477914285,97.64650877648911Z"></path><path d="M238.3405225982608,273.39058413364756L196.86343587512505,230.11530750039645L252.57157477914285,97.64650877648911Z"></path><path d="M238.3405225982608,273.39058413364756L252.57157477914285,97.64650877648911L307.03749468028815,271.97922408634827Z"></path></g></svg>