<?xml version="1.0" encoding="utf-8"?>
<!-- Generator: Adobe Illustrator 15.0.0, SVG Export Plug-In . SVG Version: 6.00 Build 0)  -->
<!DOCTYPE svg PUBLIC "-//W3C//DTD SVG 1.1//EN" "http://www.w3.org/Graphics/SVG/1.1/DTD/svg11.dtd">
<svg version="1.1" id="Layer_1" xmlns="http://www.w3.org/2000/svg" xmlns:xlink="http://www.w3.org/1999/xlink" x="0px" y="0px"
	 width="400px" height="400px" viewBox="0 0 400 400" enable-background="new 0 0 400 400" xml:space="preserve">
<g id="delaunay">
	<path fill="none" stroke="#000000" stroke-width="4.252" stroke-linejoin="round" stroke-miterlimit="10" d="M334.101,195.327
		l-13.972-10.108l27.986-19.315L334.101,195.327z"/>
	<path fill="none" stroke="#000000" stroke-width="4.252" stroke-linejoin="round" stroke-miterlimit="10" d="M334.101,195.327
		l14.015-29.423l22.771-0.776L334.101,195.327z"/>
	<path fill="none" stroke="#000000" stroke-width="4.252" stroke-linejoin="round" stroke-miterlimit="10" d="M334.101,195.327
		l36.786-30.199l29.086,10.686L334.101,195.327z"/>
	<path fill="none" stroke="#000000" stroke-width="4.252" stroke-linejoin="round" stroke-miterlimit="10" d="M153.859,227.333
		l-41.887-15.515l52.904-10.707L153.859,227.333z"/>
	<path fill="none" stroke="#000000" stroke-width="4.252" stroke-linejoin="round" stroke-miterlimit="10" d="M173.746,228.546
		l-19.886-1.213l11.017-26.222L173.746,228.546z"/>
	<path fill="none" stroke="#000000" stroke-width="4.252" stroke-linejoin="round" stroke-miterlimit="10" d="M173.746,228.546
		l-8.869-27.435l76.03-65.989L173.746,228.546z"/>
	<path fill="none" stroke="#000000" stroke-width="4.252" stroke-linejoin="round" stroke-miterlimit="10" d="M173.746,228.546
		l67.161-93.423l79.223,50.096L173.746,228.546z"/>
	<path fill="none" stroke="#000000" stroke-width="4.252" stroke-linejoin="round" stroke-miterlimit="10" d="M173.746,228.546
		l146.383-43.327l13.972,10.108L173.746,228.546z"/>
	<path fill="none" stroke="#000000" stroke-width="4.252" stroke-linejoin="round" stroke-miterlimit="10" d="M320.129,185.219
		l-79.223-50.096l107.209,30.781L320.129,185.219z"/>
	<path fill="none" stroke="#000000" stroke-width="4.252" stroke-linejoin="round" stroke-miterlimit="10" d="M111.973,211.818
		l128.934-76.696l-76.03,65.989L111.973,211.818z"/>
	<path fill="none" stroke="#000000" stroke-width="4.252" stroke-linejoin="round" stroke-miterlimit="10" d="M348.115,165.904
		l-107.209-30.781l129.98,30.005L348.115,165.904z"/>
</g>
</svg>
