<svg width="400px" height="400px"><g id="delaunay"><path d="M308.4958050586671,218.72804444819857L289.0929687530649,204.69093415451212L327.957722419918,177.8686386748516Z"></path><path d="M308.4958050586671,218.72804444819857L327.957722419918,177.8686386748516L359.5813534087,176.79104823844597Z"></path><path d="M308.4958050586671,218.72804444819857L359.5813534087,176.79104823844597L399.9724820660871,191.63088335763896Z"></path><path d="M58.19443401143002,263.1757914879821L0.025759567720712084,241.63009589582282L73.49374461493545,226.76138215466395Z"></path><path d="M85.80992448371417,264.8603119385237L58.19443401143002,263.1757914879821L73.49374461493545,226.76138215466395Z"></path><path d="M85.80992448371417,264.8603119385237L73.49374461493545,226.76138215466395L179.07648981767585,135.12260451094375Z"></path><path d="M85.80992448371417,264.8603119385237L179.07648981767585,135.12260451094375L289.0929687530649,204.69093415451212Z"></path><path d="M85.80992448371417,264.8603119385237L289.0929687530649,204.69093415451212L308.4958050586671,218.72804444819857Z"></path><path d="M289.0929687530649,204.69093415451212L179.07648981767585,135.12260451094375L327.957722419918,177.8686386748516Z"></path><path d="M0.025759567720712084,241.63009589582282L179.07648981767585,135.12260451094375L73.49374461493545,226.76138215466395Z"></path><path d="M327.957722419918,177.8686386748516L179.07648981767585,135.12260451094375L359.5813534087,176.79104823844597Z"></path></g></svg>