<?xml version="1.0" encoding="utf-8"?>
<!-- Generator: Adobe Illustrator 15.0.0, SVG Export Plug-In . SVG Version: 6.00 Build 0)  -->
<!DOCTYPE svg PUBLIC "-//W3C//DTD SVG 1.1//EN" "http://www.w3.org/Graphics/SVG/1.1/DTD/svg11.dtd">
<svg version="1.1" id="Layer_1" xmlns="http://www.w3.org/2000/svg" xmlns:xlink="http://www.w3.org/1999/xlink" x="0px" y="0px"
	 width="400px" height="400px" viewBox="0 0 400 400" enable-background="new 0 0 400 400" xml:space="preserve">
<g id="delaunay">
	<path fill="none" stroke="#000000" stroke-miterlimit="10" d="M170.31,134.899L138.583,24.363l66.173-24.358L170.31,134.899z"/>
	<path fill="none" stroke="#000000" stroke-miterlimit="10" d="M241.026,143.221l-70.716-8.322L204.756,0.005L241.026,143.221z"/>
	<path fill="none" stroke="#000000" stroke-miterlimit="10" d="M233.507,202.167l-63.197-67.268l70.716,8.322L233.507,202.167z"/>
	<path fill="none" stroke="#000000" stroke-miterlimit="10" d="M233.507,202.167l7.52-58.946l22.071,38.907L233.507,202.167z"/>
	<path fill="none" stroke="#000000" stroke-miterlimit="10" d="M240.791,399.992l-44.949-39.143l37.665-158.683L240.791,399.992z"/>
	<path fill="none" stroke="#000000" stroke-miterlimit="10" d="M240.791,399.992l-7.284-197.825l29.591-20.039L240.791,399.992z"/>
	<path fill="none" stroke="#000000" stroke-miterlimit="10" d="M195.842,360.85l-58.946-103.959l96.611-54.724L195.842,360.85z"/>
	<path fill="none" stroke="#000000" stroke-miterlimit="10" d="M136.896,256.891l1.687-232.528l31.728,110.537L136.896,256.891z"/>
	<path fill="none" stroke="#000000" stroke-miterlimit="10" d="M136.896,256.891l33.414-121.991l63.197,67.268L136.896,256.891z"/>
	<path fill="none" stroke="#000000" stroke-miterlimit="10" d="M263.098,182.128l-22.071-38.907L204.756,0.005L263.098,182.128z"/>
</g>
</svg>
