<svg width="400px" height="400px"><g id="delaunay"><path d="M170.30984036910394,134.89968031427682L138.5826511013385,24.36290058398555L204.75642088659652,0.004900932343218756Z"></path><path d="M241.02649496486168,143.22131986817934L170.30984036910394,134.89968031427682L204.75642088659652,0.004900932343218756Z"></path><path d="M233.50701811196592,202.16719388455763L170.30984036910394,134.89968031427682L241.02649496486168,143.22131986817934Z"></path><path d="M233.50701811196592,202.16719388455763L241.02649496486168,143.22131986817934L263.0979742492884,182.12860298372175Z"></path><path d="M240.79161206434185,399.99221460723993L195.8416695564274,360.8498223144852L233.50701811196592,202.16719388455763Z"></path><path d="M240.79161206434185,399.99221460723993L233.50701811196592,202.16719388455763L263.0979742492884,182.12860298372175Z"></path><path d="M195.8416695564274,360.8498223144852L136.89603235789406,256.8900672327132L233.50701811196592,202.16719388455763Z"></path><path d="M136.89603235789406,256.8900672327132L138.5826511013385,24.36290058398555L170.30984036910394,134.89968031427682Z"></path><path d="M136.89603235789406,256.8900672327132L170.30984036910394,134.89968031427682L233.50701811196592,202.16719388455763Z"></path><path d="M263.0979742492884,182.12860298372175L241.02649496486168,143.22131986817934L204.75642088659652,0.004900932343218756Z"></path></g></svg>