<svg width="400px" height="400px"><g id="delaunay"><path d="M265.37601148781823,172.29787699314426L253.45490410502921,164.56042067744306L263.68977059898475,151.57918850721586Z"></path><path d="M265.37601148781823,172.29787699314426L263.68977059898475,151.57918850721586L285.51901792547403,125.91846989760577Z"></path><path d="M265.37601148781823,172.29787699314426L285.51901792547403,125.91846989760577L353.0133045249621,144.64602582123774Z"></path><path d="M249.64239892388153,185.4931069791143L253.45490410502921,164.56042067744306L265.37601148781823,172.29787699314426Z"></path><path d="M248.01123249902264,187.47518625146859L253.45490410502921,164.56042067744306L249.64239892388153,185.4931069791143Z"></path><path d="M277.68364756891094,102.12201105944129L270.6722136582288,99.96123953048563L280.2681360954201,90.84536993279715Z"></path><path d="M244.16084350633886,121.81830838820194L243.8143228794127,112.06985069232863L246.16622434864615,114.01858328274982Z"></path><path d="M244.16084350633886,121.81830838820194L246.16622434864615,114.01858328274982L261.9719442659981,118.90150832150684Z"></path><path d="M306.76199169007305,67.78649797336172L291.87262400065873,27.559221438843622L309.9229832140991,67.44060479624267Z"></path><path d="M280.2681360954201,90.84536993279715L268.05360617417045,68.86951434200404L293.01368631222107,83.95626424218915Z"></path><path d="M164.1779240700743,382.6136737208793L158.82163262833512,364.94797072903145L167.64297952442115,370.09359269729987Z"></path><path d="M164.1779240700743,382.6136737208793L167.64297952442115,370.09359269729987L243.29398963862135,374.14900824064654Z"></path><path d="M167.64297952442115,370.09359269729987L158.82163262833512,364.94797072903145L169.72022046875165,365.0073989723056Z"></path><path d="M169.72022046875165,365.0073989723056L158.82163262833512,364.94797072903145L164.41996530562054,354.45303238953886Z"></path><path d="M169.72022046875165,365.0073989723056L164.41996530562054,354.45303238953886L181.05358351605287,336.34560576226545Z"></path><path d="M293.01368631222107,83.95626424218915L268.05360617417045,68.86951434200404L306.76199169007305,67.78649797336172Z"></path><path d="M293.01368631222107,83.95626424218915L306.76199169007305,67.78649797336172L300.72589711413343,82.91061146952528Z"></path><path d="M172.92110639727093,314.2632163802642L169.60758490511546,311.539154184612L170.41743419583074,309.2876061217144Z"></path><path d="M150.375913571679,295.98411966350113L155.71093814324541,282.10265686702456L154.13784497811292,294.43755006875205Z"></path><path d="M156.92147195388185,388.1118771552328L113.0138402105483,336.8918611864656L158.82163262833512,364.94797072903145Z"></path><path d="M156.92147195388185,388.1118771552328L158.82163262833512,364.94797072903145L164.1779240700743,382.6136737208793Z"></path><path d="M156.92147195388185,388.1118771552328L164.1779240700743,382.6136737208793L243.29398963862135,374.14900824064654Z"></path><path d="M233.2423626027344,325.49469319288204L202.31271008370996,295.32035810175506L213.586835057022,239.48774600321474Z"></path><path d="M233.2423626027344,325.49469319288204L213.586835057022,239.48774600321474L258.7343421172585,232.9702052607149Z"></path><path d="M233.2423626027344,325.49469319288204L258.7343421172585,232.9702052607149L372.33945211125103,309.5693159014022Z"></path><path d="M353.0133045249621,144.64602582123774L285.51901792547403,125.91846989760577L305.6368015686973,108.9736348040892Z"></path><path d="M353.0133045249621,144.64602582123774L305.6368015686973,108.9736348040892L315.72478587616473,81.16957141506288Z"></path><path d="M353.0133045249621,144.64602582123774L315.72478587616473,81.16957141506288L345.0918771485725,69.83625552406423Z"></path><path d="M353.0133045249621,144.64602582123774L345.0918771485725,69.83625552406423L349.1924812229946,69.83625552406423Z"></path><path d="M176.39729388329962,314.5433288741868L172.92110639727093,314.2632163802642L170.41743419583074,309.2876061217144Z"></path><path d="M176.39729388329962,314.5433288741868L170.41743419583074,309.2876061217144L167.01352645782853,301.2978239730926Z"></path><path d="M176.39729388329962,314.5433288741868L167.01352645782853,301.2978239730926L202.31271008370996,295.32035810175506Z"></path><path d="M154.13784497811292,294.43755006875205L155.71093814324541,282.10265686702456L159.75823020285023,284.5080944625457Z"></path><path d="M154.13784497811292,294.43755006875205L159.75823020285023,284.5080944625457L165.87897544231294,291.3461598985355Z"></path><path d="M164.41996530562054,354.45303238953886L154.725409946075,324.35619229348987L165.55960732332755,325.74029127254295Z"></path><path d="M164.41996530562054,354.45303238953886L165.55960732332755,325.74029127254295L181.05358351605287,336.34560576226545Z"></path><path d="M113.0138402105483,336.8918611864656L84.46578951694458,285.97621000808226L112.39704253124845,263.81785762326706Z"></path><path d="M113.0138402105483,336.8918611864656L112.39704253124845,263.81785762326706L147.4301986250543,298.5632538685931Z"></path><path d="M113.0138402105483,336.8918611864656L147.4301986250543,298.5632538685931L154.725409946075,324.35619229348987Z"></path><path d="M294.2322151557838,94.37636862691426L280.2681360954201,90.84536993279715L293.01368631222107,83.95626424218915Z"></path><path d="M294.2322151557838,94.37636862691426L293.01368631222107,83.95626424218915L297.9573480172939,87.59983699516242Z"></path><path d="M294.2322151557838,94.37636862691426L297.9573480172939,87.59983699516242L301.8621542422399,94.37636862691426Z"></path><path d="M301.8621542422399,94.37636862691426L297.9573480172939,87.59983699516242L300.72589711413343,82.91061146952528Z"></path><path d="M301.8621542422399,94.37636862691426L300.72589711413343,82.91061146952528L307.3274167620099,93.0103610887587Z"></path><path d="M214.14777432325678,229.41237678498453L168.38630936462016,183.56497530374276L244.98177591022812,190.35848756734205Z"></path><path d="M153.38768985802804,267.6078043596513L134.48214823081486,261.44394469943654L139.1663151318807,208.50421882835465Z"></path><path d="M153.38768985802804,267.6078043596513L139.1663151318807,208.50421882835465L185.81992254112635,239.91702618757225Z"></path><path d="M196.1768486336686,259.1829962651852L185.81992254112635,239.91702618757225L213.586835057022,239.48774600321474Z"></path><path d="M44.64460493182554,198.8841934067759L35.35573332859698,128.17890991524206L73.77453415214757,122.50685828693982Z"></path><path d="M44.64460493182554,198.8841934067759L73.77453415214757,122.50685828693982L90.8749829887612,125.50299422776497Z"></path><path d="M295.0725829973871,109.82935539215688L293.0604248038871,105.48151890370383L305.6368015686973,108.9736348040892Z"></path><path d="M156.26308718510242,270.52406340974096L153.38768985802804,267.6078043596513L185.81992254112635,239.91702618757225Z"></path><path d="M156.26308718510242,270.52406340974096L185.81992254112635,239.91702618757225L194.49167770000514,261.44394469943654Z"></path><path d="M305.6368015686973,108.9736348040892L293.0604248038871,105.48151890370383L301.8621542422399,94.37636862691426Z"></path><path d="M305.6368015686973,108.9736348040892L301.8621542422399,94.37636862691426L307.3274167620099,93.0103610887587Z"></path><path d="M305.6368015686973,108.9736348040892L307.3274167620099,93.0103610887587L315.72478587616473,81.16957141506288Z"></path><path d="M309.9229832140991,67.44060479624267L291.87262400065873,27.559221438843622L330.7281391850887,35.85464968263301Z"></path><path d="M259.18947114799215,130.37946037226075L244.16084350633886,121.81830838820194L261.9719442659981,118.90150832150684Z"></path><path d="M259.18947114799215,130.37946037226075L261.9719442659981,118.90150832150684L263.76576289061353,117.28228456592748Z"></path><path d="M259.18947114799215,130.37946037226075L263.76576289061353,117.28228456592748L278.12691392048475,118.4177570867157Z"></path><path d="M285.51901792547403,125.91846989760577L278.12691392048475,118.4177570867157L295.0725829973871,109.82935539215688Z"></path><path d="M285.51901792547403,125.91846989760577L295.0725829973871,109.82935539215688L305.6368015686973,108.9736348040892Z"></path><path d="M244.98177591022812,190.35848756734205L168.38630936462016,183.56497530374276L227.42461021556926,137.72459492096405Z"></path><path d="M244.98177591022812,190.35848756734205L227.42461021556926,137.72459492096405L253.45490410502921,164.56042067744306Z"></path><path d="M244.98177591022812,190.35848756734205L253.45490410502921,164.56042067744306L248.01123249902264,187.47518625146859Z"></path><path d="M258.7343421172585,232.9702052607149L214.14777432325678,229.41237678498453L244.98177591022812,190.35848756734205Z"></path><path d="M258.7343421172585,232.9702052607149L244.98177591022812,190.35848756734205L248.01123249902264,187.47518625146859Z"></path><path d="M258.7343421172585,232.9702052607149L248.01123249902264,187.47518625146859L249.64239892388153,185.4931069791143Z"></path><path d="M258.7343421172585,232.9702052607149L249.64239892388153,185.4931069791143L265.37601148781823,172.29787699314426Z"></path><path d="M258.7343421172585,232.9702052607149L265.37601148781823,172.29787699314426L353.0133045249621,144.64602582123774Z"></path><path d="M112.39704253124845,263.81785762326706L44.64460493182554,198.8841934067759L139.1663151318807,208.50421882835465Z"></path><path d="M112.39704253124845,263.81785762326706L139.1663151318807,208.50421882835465L134.48214823081486,261.44394469943654Z"></path><path d="M84.46578951694458,285.97621000808226L44.64460493182554,198.8841934067759L112.39704253124845,263.81785762326706Z"></path><path d="M147.4301986250543,298.5632538685931L112.39704253124845,263.81785762326706L134.48214823081486,261.44394469943654Z"></path><path d="M147.4301986250543,298.5632538685931L134.48214823081486,261.44394469943654L155.71093814324541,282.10265686702456Z"></path><path d="M147.4301986250543,298.5632538685931L155.71093814324541,282.10265686702456L150.375913571679,295.98411966350113Z"></path><path d="M213.586835057022,239.48774600321474L214.14777432325678,229.41237678498453L258.7343421172585,232.9702052607149Z"></path><path d="M307.3274167620099,93.0103610887587L300.72589711413343,82.91061146952528L315.72478587616473,81.16957141506288Z"></path><path d="M159.75823020285023,284.5080944625457L155.71093814324541,282.10265686702456L156.26308718510242,270.52406340974096Z"></path><path d="M194.49167770000514,261.44394469943654L185.81992254112635,239.91702618757225L196.1768486336686,259.1829962651852Z"></path><path d="M194.49167770000514,261.44394469943654L196.1768486336686,259.1829962651852L195.94345970929427,260.11496717416065Z"></path><path d="M165.55960732332755,325.74029127254295L154.725409946075,324.35619229348987L162.73578579866475,310.48258727920097Z"></path><path d="M165.55960732332755,325.74029127254295L162.73578579866475,310.48258727920097L169.60758490511546,311.539154184612Z"></path><path d="M165.55960732332755,325.74029127254295L169.60758490511546,311.539154184612L172.92110639727093,314.2632163802642Z"></path><path d="M165.55960732332755,325.74029127254295L172.92110639727093,314.2632163802642L176.39729388329962,314.5433288741868Z"></path><path d="M144.47183490551345,180.62360866750453L90.8749829887612,125.50299422776497L227.42461021556926,137.72459492096405Z"></path><path d="M227.42461021556926,137.72459492096405L90.8749829887612,125.50299422776497L240.6777573500955,90.3323846024821Z"></path><path d="M227.42461021556926,137.72459492096405L240.6777573500955,90.3323846024821L243.8143228794127,112.06985069232863Z"></path><path d="M227.42461021556926,137.72459492096405L243.8143228794127,112.06985069232863L234.52599667528855,134.90152028310962Z"></path><path d="M227.42461021556926,137.72459492096405L234.52599667528855,134.90152028310962L231.00094605741162,137.33590658739064Z"></path><path d="M181.05358351605287,336.34560576226545L165.55960732332755,325.74029127254295L176.39729388329962,314.5433288741868Z"></path><path d="M181.05358351605287,336.34560576226545L176.39729388329962,314.5433288741868L202.31271008370996,295.32035810175506Z"></path><path d="M181.05358351605287,336.34560576226545L202.31271008370996,295.32035810175506L233.2423626027344,325.49469319288204Z"></path><path d="M161.9936160461261,198.39834961048973L144.47183490551345,180.62360866750453L168.38630936462016,183.56497530374276Z"></path><path d="M139.1663151318807,208.50421882835465L44.64460493182554,198.8841934067759L90.8749829887612,125.50299422776497Z"></path><path d="M139.1663151318807,208.50421882835465L90.8749829887612,125.50299422776497L144.47183490551345,180.62360866750453Z"></path><path d="M139.1663151318807,208.50421882835465L144.47183490551345,180.62360866750453L161.9936160461261,198.39834961048973Z"></path><path d="M268.05360617417045,68.86951434200404L291.87262400065873,27.559221438843622L306.76199169007305,67.78649797336172Z"></path><path d="M169.60758490511546,311.539154184612L162.73578579866475,310.48258727920097L170.41743419583074,309.2876061217144Z"></path><path d="M264.1982733701718,113.34173773359929L240.6777573500955,90.3323846024821L270.6722136582288,99.96123953048563Z"></path><path d="M234.52599667528855,134.90152028310962L243.8143228794127,112.06985069232863L244.16084350633886,121.81830838820194Z"></path><path d="M234.52599667528855,134.90152028310962L244.16084350633886,121.81830838820194L259.18947114799215,130.37946037226075Z"></path><path d="M278.12691392048475,118.4177570867157L263.76576289061353,117.28228456592748L277.0559957898422,114.01858328274982Z"></path><path d="M278.12691392048475,118.4177570867157L277.0559957898422,114.01858328274982L293.0604248038871,105.48151890370383Z"></path><path d="M278.12691392048475,118.4177570867157L293.0604248038871,105.48151890370383L295.0725829973871,109.82935539215688Z"></path><path d="M263.76576289061353,117.28228456592748L264.1982733701718,113.34173773359929L277.0559957898422,114.01858328274982Z"></path><path d="M155.71093814324541,282.10265686702456L134.48214823081486,261.44394469943654L153.38768985802804,267.6078043596513Z"></path><path d="M155.71093814324541,282.10265686702456L153.38768985802804,267.6078043596513L156.26308718510242,270.52406340974096Z"></path><path d="M253.45490410502921,164.56042067744306L227.42461021556926,137.72459492096405L231.00094605741162,137.33590658739064Z"></path><path d="M253.45490410502921,164.56042067744306L231.00094605741162,137.33590658739064L234.52599667528855,134.90152028310962Z"></path><path d="M253.45490410502921,164.56042067744306L234.52599667528855,134.90152028310962L262.842561234279,144.55177686066747Z"></path><path d="M253.45490410502921,164.56042067744306L262.842561234279,144.55177686066747L263.68977059898475,151.57918850721586Z"></path><path d="M263.68977059898475,151.57918850721586L262.842561234279,144.55177686066747L285.51901792547403,125.91846989760577Z"></path><path d="M35.35573332859698,128.17890991524206L73.77453415214757,112.6235387035027L73.77453415214757,122.50685828693982Z"></path><path d="M270.6722136582288,99.96123953048563L240.6777573500955,90.3323846024821L268.05360617417045,68.86951434200404Z"></path><path d="M270.6722136582288,99.96123953048563L268.05360617417045,68.86951434200404L280.2681360954201,90.84536993279715Z"></path><path d="M202.31271008370996,295.32035810175506L165.87897544231294,291.3461598985355L194.49167770000514,261.44394469943654Z"></path><path d="M202.31271008370996,295.32035810175506L194.49167770000514,261.44394469943654L195.94345970929427,260.11496717416065Z"></path><path d="M202.31271008370996,295.32035810175506L195.94345970929427,260.11496717416065L213.586835057022,239.48774600321474Z"></path><path d="M372.33945211125103,309.5693159014022L258.7343421172585,232.9702052607149L353.0133045249621,144.64602582123774Z"></path><path d="M372.33945211125103,309.5693159014022L353.0133045249621,144.64602582123774L349.1924812229946,69.83625552406423Z"></path><path d="M262.842561234279,144.55177686066747L234.52599667528855,134.90152028310962L259.18947114799215,130.37946037226075Z"></path><path d="M262.842561234279,144.55177686066747L259.18947114799215,130.37946037226075L278.12691392048475,118.4177570867157Z"></path><path d="M262.842561234279,144.55177686066747L278.12691392048475,118.4177570867157L285.51901792547403,125.91846989760577Z"></path><path d="M261.9719442659981,118.90150832150684L246.16622434864615,114.01858328274982L264.1982733701718,113.34173773359929Z"></path><path d="M261.9719442659981,118.90150832150684L264.1982733701718,113.34173773359929L263.76576289061353,117.28228456592748Z"></path><path d="M300.72589711413343,82.91061146952528L306.76199169007305,67.78649797336172L315.72478587616473,77.15126216730128Z"></path><path d="M300.72589711413343,82.91061146952528L315.72478587616473,77.15126216730128L315.72478587616473,81.16957141506288Z"></path><path d="M168.38630936462016,183.56497530374276L144.47183490551345,180.62360866750453L227.42461021556926,137.72459492096405Z"></path><path d="M297.9573480172939,87.59983699516242L293.01368631222107,83.95626424218915L300.72589711413343,82.91061146952528Z"></path><path d="M315.72478587616473,77.15126216730128L306.76199169007305,67.78649797336172L309.9229832140991,67.44060479624267Z"></path><path d="M315.72478587616473,77.15126216730128L309.9229832140991,67.44060479624267L330.7281391850887,35.85464968263301Z"></path><path d="M315.72478587616473,77.15126216730128L330.7281391850887,35.85464968263301L345.0918771485725,69.83625552406423Z"></path><path d="M315.72478587616473,81.16957141506288L315.72478587616473,77.15126216730128L345.0918771485725,69.83625552406423Z"></path><path d="M158.82163262833512,364.94797072903145L113.0138402105483,336.8918611864656L154.725409946075,324.35619229348987Z"></path><path d="M158.82163262833512,364.94797072903145L154.725409946075,324.35619229348987L164.41996530562054,354.45303238953886Z"></path><path d="M154.725409946075,324.35619229348987L147.4301986250543,298.5632538685931L162.73578579866475,310.48258727920097Z"></path><path d="M330.7281391850887,35.85464968263301L291.87262400065873,27.559221438843622L330.7190218065625,8.872528954403776Z"></path><path d="M90.8749829887612,125.50299422776497L73.77453415214757,122.50685828693982L73.77453415214757,112.6235387035027Z"></path><path d="M90.8749829887612,125.50299422776497L73.77453415214757,112.6235387035027L240.6777573500955,90.3323846024821Z"></path><path d="M73.77453415214757,112.6235387035027L330.7190218065625,8.872528954403776L291.87262400065873,27.559221438843622Z"></path><path d="M73.77453415214757,112.6235387035027L291.87262400065873,27.559221438843622L240.6777573500955,90.3323846024821Z"></path><path d="M162.73578579866475,310.48258727920097L147.4301986250543,298.5632538685931L150.375913571679,295.98411966350113Z"></path><path d="M162.73578579866475,310.48258727920097L150.375913571679,295.98411966350113L154.13784497811292,294.43755006875205Z"></path><path d="M162.73578579866475,310.48258727920097L154.13784497811292,294.43755006875205L167.01352645782853,301.2978239730926Z"></path><path d="M162.73578579866475,310.48258727920097L167.01352645782853,301.2978239730926L170.41743419583074,309.2876061217144Z"></path><path d="M165.87897544231294,291.3461598985355L159.75823020285023,284.5080944625457L156.26308718510242,270.52406340974096Z"></path><path d="M165.87897544231294,291.3461598985355L156.26308718510242,270.52406340974096L194.49167770000514,261.44394469943654Z"></path><path d="M195.94345970929427,260.11496717416065L196.1768486336686,259.1829962651852L213.586835057022,239.48774600321474Z"></path><path d="M167.01352645782853,301.2978239730926L154.13784497811292,294.43755006875205L165.87897544231294,291.3461598985355Z"></path><path d="M167.01352645782853,301.2978239730926L165.87897544231294,291.3461598985355L202.31271008370996,295.32035810175506Z"></path><path d="M293.0604248038871,105.48151890370383L277.68364756891094,102.12201105944129L280.2681360954201,90.84536993279715Z"></path><path d="M293.0604248038871,105.48151890370383L280.2681360954201,90.84536993279715L294.2322151557838,94.37636862691426Z"></path><path d="M293.0604248038871,105.48151890370383L294.2322151557838,94.37636862691426L301.8621542422399,94.37636862691426Z"></path><path d="M243.29398963862135,374.14900824064654L167.64297952442115,370.09359269729987L169.72022046875165,365.0073989723056Z"></path><path d="M243.29398963862135,374.14900824064654L169.72022046875165,365.0073989723056L181.05358351605287,336.34560576226545Z"></path><path d="M243.29398963862135,374.14900824064654L181.05358351605287,336.34560576226545L233.2423626027344,325.49469319288204Z"></path><path d="M243.29398963862135,374.14900824064654L233.2423626027344,325.49469319288204L372.33945211125103,309.5693159014022Z"></path><path d="M349.1924812229946,69.83625552406423L330.7281391850887,35.85464968263301L330.7190218065625,8.872528954403776Z"></path><path d="M345.0918771485725,69.83625552406423L330.7281391850887,35.85464968263301L349.1924812229946,69.83625552406423Z"></path><path d="M240.6777573500955,90.3323846024821L291.87262400065873,27.559221438843622L268.05360617417045,68.86951434200404Z"></path><path d="M277.0559957898422,114.01858328274982L264.1982733701718,113.34173773359929L270.6722136582288,99.96123953048563Z"></path><path d="M277.0559957898422,114.01858328274982L270.6722136582288,99.96123953048563L277.68364756891094,102.12201105944129Z"></path><path d="M277.0559957898422,114.01858328274982L277.68364756891094,102.12201105944129L293.0604248038871,105.48151890370383Z"></path><path d="M246.16622434864615,114.01858328274982L243.8143228794127,112.06985069232863L240.6777573500955,90.3323846024821Z"></path><path d="M246.16622434864615,114.01858328274982L240.6777573500955,90.3323846024821L264.1982733701718,113.34173773359929Z"></path><path d="M185.81992254112635,239.91702618757225L139.1663151318807,208.50421882835465L161.9936160461261,198.39834961048973Z"></path><path d="M185.81992254112635,239.91702618757225L161.9936160461261,198.39834961048973L168.38630936462016,183.56497530374276Z"></path><path d="M185.81992254112635,239.91702618757225L168.38630936462016,183.56497530374276L214.14777432325678,229.41237678498453Z"></path><path d="M185.81992254112635,239.91702618757225L214.14777432325678,229.41237678498453L213.586835057022,239.48774600321474Z"></path></g></svg>