<?xml version="1.0" encoding="utf-8"?>
<!-- Generator: Adobe Illustrator 15.0.0, SVG Export Plug-In . SVG Version: 6.00 Build 0)  -->
<!DOCTYPE svg PUBLIC "-//W3C//DTD SVG 1.1//EN" "http://www.w3.org/Graphics/SVG/1.1/DTD/svg11.dtd">
<svg version="1.1" id="Layer_1" xmlns="http://www.w3.org/2000/svg" xmlns:xlink="http://www.w3.org/1999/xlink" x="0px" y="0px"
	 width="400px" height="400px" viewBox="0 0 400 400" enable-background="new 0 0 400 400" xml:space="preserve">
<g id="delaunay">
	<path fill="none" stroke="#000000" stroke-miterlimit="10" d="M250.495,195.034l-13.58-8.813l11.658-14.788L250.495,195.034z"/>
	<path fill="none" stroke="#000000" stroke-miterlimit="10" d="M250.495,195.034l-1.922-23.601l24.867-29.231L250.495,195.034z"/>
	<path fill="none" stroke="#000000" stroke-miterlimit="10" d="M250.495,195.034l22.945-52.832l76.885,21.333L250.495,195.034z"/>
	<path fill="none" stroke="#000000" stroke-miterlimit="10" d="M232.572,210.065l4.343-23.845l13.58,8.813L232.572,210.065z"/>
	<path fill="none" stroke="#000000" stroke-miterlimit="10" d="M230.715,212.323l6.2-26.103l-4.343,23.845L230.715,212.323z"/>
	<path fill="none" stroke="#000000" stroke-miterlimit="10" d="M264.515,115.095l-7.987-2.461l10.931-10.385L264.515,115.095z"/>
	<path fill="none" stroke="#000000" stroke-miterlimit="10" d="M226.327,137.532l-0.394-11.104l2.679,2.22L226.327,137.532z"/>
	<path fill="none" stroke="#000000" stroke-miterlimit="10" d="M226.327,137.532l2.285-8.885l18.006,5.562L226.327,137.532z"/>
	<path fill="none" stroke="#000000" stroke-miterlimit="10" d="M297.639,75.983l-16.961-45.824l20.562,45.43L297.639,75.983z"/>
	<path fill="none" stroke="#000000" stroke-miterlimit="10" d="M267.458,102.25l-13.913-25.033l28.433,17.185L267.458,102.25z"/>
	<path fill="none" stroke="#000000" stroke-miterlimit="10" d="M135.217,434.609l-6.101-20.123l10.049,5.862L135.217,434.609z"/>
	<path fill="none" stroke="#000000" stroke-miterlimit="10" d="M135.217,434.609l3.948-14.261l86.176,4.618L135.217,434.609z"/>
	<path fill="none" stroke="#000000" stroke-miterlimit="10" d="M139.165,420.349l-10.049-5.862l12.415,0.068L139.165,420.349z"/>
	<path fill="none" stroke="#000000" stroke-miterlimit="10" d="M141.531,414.555l-12.415-0.068l6.377-11.955L141.531,414.555z"/>
	<path fill="none" stroke="#000000" stroke-miterlimit="10" d="M141.531,414.555l-6.038-12.023l18.948-20.626L141.531,414.555z"/>
	<path fill="none" stroke="#000000" stroke-miterlimit="10" d="M281.978,94.402l-28.433-17.185l44.094-1.234L281.978,94.402z"/>
	<path fill="none" stroke="#000000" stroke-miterlimit="10" d="M281.978,94.402l15.661-18.419l-6.875,17.228L281.978,94.402z"/>
	<path fill="none" stroke="#000000" stroke-miterlimit="10" d="M145.177,356.751l-3.774-3.104l0.923-2.565L145.177,356.751z"/>
	<path fill="none" stroke="#000000" stroke-miterlimit="10" d="M119.496,335.929l6.077-15.813l-1.792,14.051L119.496,335.929z"/>
	<path fill="none" stroke="#000000" stroke-miterlimit="10" d="M126.952,440.873l-50.017-58.345l52.181,31.958L126.952,440.873z"/>
	<path fill="none" stroke="#000000" stroke-miterlimit="10" d="M126.952,440.873l2.165-26.387l6.101,20.123L126.952,440.873z"/>
	<path fill="none" stroke="#000000" stroke-miterlimit="10" d="M126.952,440.873l8.266-6.264l90.124-9.643L126.952,440.873z"/>
	<path fill="none" stroke="#000000" stroke-miterlimit="10" d="M213.891,369.544l-35.233-34.372l12.843-63.6L213.891,369.544z"/>
	<path fill="none" stroke="#000000" stroke-miterlimit="10" d="M213.891,369.544l-22.39-97.972l51.428-7.424L213.891,369.544z"/>
	<path fill="none" stroke="#000000" stroke-miterlimit="10" d="M213.891,369.544l29.038-105.396l129.411,87.255L213.891,369.544z"/>
	<path fill="none" stroke="#000000" stroke-miterlimit="10" d="M350.325,163.535l-76.885-21.333l22.916-19.302L350.325,163.535z"/>
	<path fill="none" stroke="#000000" stroke-miterlimit="10" d="M350.325,163.535L296.356,122.9l11.491-31.672L350.325,163.535z"/>
	<path fill="none" stroke="#000000" stroke-miterlimit="10" d="M350.325,163.535l-42.478-72.308l33.453-12.91L350.325,163.535z"/>
	<path fill="none" stroke="#000000" stroke-miterlimit="10" d="M350.325,163.535l-9.024-85.217h4.671L350.325,163.535z"/>
	<path fill="none" stroke="#000000" stroke-miterlimit="10" d="M149.137,357.069l-3.96-0.318l-2.852-5.669L149.137,357.069z"/>
	<path fill="none" stroke="#000000" stroke-miterlimit="10" d="M149.137,357.069l-6.812-5.987l-3.877-9.101L149.137,357.069z"/>
	<path fill="none" stroke="#000000" stroke-miterlimit="10" d="M149.137,357.069l-10.689-15.088l40.21-6.81L149.137,357.069z"/>
	<path fill="none" stroke="#000000" stroke-miterlimit="10" d="M123.781,334.166l1.792-14.051l4.61,2.74L123.781,334.166z"/>
	<path fill="none" stroke="#000000" stroke-miterlimit="10" d="M123.781,334.166l6.402-11.311l6.972,7.789L123.781,334.166z"/>
	<path fill="none" stroke="#000000" stroke-miterlimit="10" d="M135.493,402.531l-11.043-34.283l12.341,1.576L135.493,402.531z"/>
	<path fill="none" stroke="#000000" stroke-miterlimit="10" d="M135.493,402.531l1.298-32.707l17.65,12.081L135.493,402.531z"/>
	<path fill="none" stroke="#000000" stroke-miterlimit="10" d="M76.935,382.528l-32.52-58l31.817-25.241L76.935,382.528z"/>
	<path fill="none" stroke="#000000" stroke-miterlimit="10" d="M76.935,382.528l-0.703-83.241l39.907,39.579L76.935,382.528z"/>
	<path fill="none" stroke="#000000" stroke-miterlimit="10" d="M76.935,382.528l39.205-43.662l8.311,29.382L76.935,382.528z"/>
	<path fill="none" stroke="#000000" stroke-miterlimit="10" d="M283.366,106.272l-15.908-4.022l14.52-7.848L283.366,106.272z"/>
	<path fill="none" stroke="#000000" stroke-miterlimit="10" d="M283.366,106.272l-1.389-11.87l5.631,4.15L283.366,106.272z"/>
	<path fill="none" stroke="#000000" stroke-miterlimit="10" d="M283.366,106.272l4.242-7.72l4.449,7.72H283.366z"/>
	<path fill="none" stroke="#000000" stroke-miterlimit="10" d="M292.058,106.272l-4.449-7.72l3.155-5.341L292.058,106.272z"/>
	<path fill="none" stroke="#000000" stroke-miterlimit="10" d="M292.058,106.272l-1.294-13.061l7.519,11.505L292.058,106.272z"/>
	<path fill="none" stroke="#000000" stroke-miterlimit="10" d="M192.14,260.095l-52.129-52.226l87.252,7.738L192.14,260.095z"/>
	<path fill="none" stroke="#000000" stroke-miterlimit="10" d="M122.926,303.604l-21.536-7.021l5.336-60.305L122.926,303.604z"/>
	<path fill="none" stroke="#000000" stroke-miterlimit="10" d="M122.926,303.604l-16.2-67.326l53.144,35.783L122.926,303.604z"/>
	<path fill="none" stroke="#000000" stroke-miterlimit="10" d="M171.668,294.008l-11.798-21.947l31.63-0.488L171.668,294.008z"/>
	<path fill="none" stroke="#000000" stroke-miterlimit="10" d="M-0.946,225.319l-10.581-80.542l43.763-6.461L-0.946,225.319z"/>
	<path fill="none" stroke="#000000" stroke-miterlimit="10" d="M-0.946,225.319l33.183-87.003l19.479,3.413L-0.946,225.319z"/>
	<path fill="none" stroke="#000000" stroke-miterlimit="10" d="M284.322,123.875l-2.291-4.953l14.325,3.978L284.322,123.875z"/>
	<path fill="none" stroke="#000000" stroke-miterlimit="10" d="M126.202,306.926l-3.275-3.322l36.944-31.543L126.202,306.926z"/>
	<path fill="none" stroke="#000000" stroke-miterlimit="10" d="M126.202,306.926l33.669-34.865l9.878,24.521L126.202,306.926z"/>
	<path fill="none" stroke="#000000" stroke-miterlimit="10" d="M296.356,122.9l-14.325-3.978l10.026-12.65L296.356,122.9z"/>
	<path fill="none" stroke="#000000" stroke-miterlimit="10" d="M296.356,122.9l-4.299-16.628l6.225-1.556L296.356,122.9z"/>
	<path fill="none" stroke="#000000" stroke-miterlimit="10" d="M296.356,122.9l1.926-18.184l9.565-13.488L296.356,122.9z"/>
	<path fill="none" stroke="#000000" stroke-miterlimit="10" d="M301.239,75.589l-20.562-45.43l44.262,9.45L301.239,75.589z"/>
	<path fill="none" stroke="#000000" stroke-miterlimit="10" d="M243.447,147.284l-17.12-9.752l20.291-3.323L243.447,147.284z"/>
	<path fill="none" stroke="#000000" stroke-miterlimit="10" d="M243.447,147.284l3.171-13.075l2.042-1.844L243.447,147.284z"/>
	<path fill="none" stroke="#000000" stroke-miterlimit="10" d="M243.447,147.284l5.213-14.919l16.359,1.293L243.447,147.284z"/>
	<path fill="none" stroke="#000000" stroke-miterlimit="10" d="M273.44,142.202l-8.421-8.544l19.303-9.784L273.44,142.202z"/>
	<path fill="none" stroke="#000000" stroke-miterlimit="10" d="M273.44,142.202l10.882-18.328l12.034-0.975L273.44,142.202z"/>
	<path fill="none" stroke="#000000" stroke-miterlimit="10" d="M227.264,215.607l-87.252-7.738l67.252-52.218L227.264,215.607z"/>
	<path fill="none" stroke="#000000" stroke-miterlimit="10" d="M227.264,215.607l-20-59.957l29.651,30.57L227.264,215.607z"/>
	<path fill="none" stroke="#000000" stroke-miterlimit="10" d="M227.264,215.607l9.651-29.387l-6.2,26.103L227.264,215.607z"/>
	<path fill="none" stroke="#000000" stroke-miterlimit="10" d="M242.929,264.148l-50.789-4.054l35.124-44.487L242.929,264.148z"/>
	<path fill="none" stroke="#000000" stroke-miterlimit="10" d="M242.929,264.148l-15.665-48.541l3.451-3.284L242.929,264.148z"/>
	<path fill="none" stroke="#000000" stroke-miterlimit="10" d="M242.929,264.148l-12.214-51.825l1.857-2.258L242.929,264.148z"/>
	<path fill="none" stroke="#000000" stroke-miterlimit="10" d="M242.929,264.148l-10.356-54.083l17.923-15.031L242.929,264.148z"/>
	<path fill="none" stroke="#000000" stroke-miterlimit="10" d="M242.929,264.148l7.566-69.114l99.83-31.499L242.929,264.148z"/>
	<path fill="none" stroke="#000000" stroke-miterlimit="10" d="M76.232,299.287l-77.178-73.968l107.672,10.958L76.232,299.287z"/>
	<path fill="none" stroke="#000000" stroke-miterlimit="10" d="M76.232,299.287l30.494-63.01l-5.336,60.305L76.232,299.287z"/>
	<path fill="none" stroke="#000000" stroke-miterlimit="10" d="M44.416,324.528l-45.361-99.209l77.178,73.968L44.416,324.528z"/>
	<path fill="none" stroke="#000000" stroke-miterlimit="10" d="M116.14,338.866l-39.907-39.579l25.158-2.705L116.14,338.866z"/>
	<path fill="none" stroke="#000000" stroke-miterlimit="10" d="M116.14,338.866l-14.75-42.284l24.183,23.533L116.14,338.866z"/>
	<path fill="none" stroke="#000000" stroke-miterlimit="10" d="M116.14,338.866l9.433-18.751l-6.077,15.813L116.14,338.866z"/>
	<path fill="none" stroke="#000000" stroke-miterlimit="10" d="M191.5,271.572l0.64-11.478l50.789,4.054L191.5,271.572z"/>
	<path fill="none" stroke="#000000" stroke-miterlimit="10" d="M298.282,104.716l-7.519-11.505l17.084-1.983L298.282,104.716z"/>
	<path fill="none" stroke="#000000" stroke-miterlimit="10" d="M130.183,322.855l-4.61-2.74l0.629-13.189L130.183,322.855z"/>
	<path fill="none" stroke="#000000" stroke-miterlimit="10" d="M169.749,296.582l-9.878-24.521l11.798,21.947L169.749,296.582z"/>
	<path fill="none" stroke="#000000" stroke-miterlimit="10" d="M169.749,296.582l1.92-2.574l-0.266,1.062L169.749,296.582z"/>
	<path fill="none" stroke="#000000" stroke-miterlimit="10" d="M136.792,369.824l-12.341-1.576l9.125-15.805L136.792,369.824z"/>
	<path fill="none" stroke="#000000" stroke-miterlimit="10" d="M136.792,369.824l-3.217-17.381l7.828,1.204L136.792,369.824z"/>
	<path fill="none" stroke="#000000" stroke-miterlimit="10" d="M136.792,369.824l4.611-16.177l3.774,3.104L136.792,369.824z"/>
	<path fill="none" stroke="#000000" stroke-miterlimit="10" d="M136.792,369.824l8.385-13.073l3.96,0.318L136.792,369.824z"/>
	<path fill="none" stroke="#000000" stroke-miterlimit="10" d="M112.77,204.519l-61.053-62.79l155.547,13.922L112.77,204.519z"/>
	<path fill="none" stroke="#000000" stroke-miterlimit="10" d="M207.264,155.651L51.716,141.729l170.644-40.063L207.264,155.651z"/>
	<path fill="none" stroke="#000000" stroke-miterlimit="10" d="M207.264,155.651l15.097-53.985l3.573,24.762L207.264,155.651z"/>
	<path fill="none" stroke="#000000" stroke-miterlimit="10" d="M207.264,155.651l18.67-29.224l-10.581,26.008L207.264,155.651z"/>
	<path fill="none" stroke="#000000" stroke-miterlimit="10" d="M207.264,155.651l8.089-3.216l-4.016,2.773L207.264,155.651z"/>
	<path fill="none" stroke="#000000" stroke-miterlimit="10" d="M154.441,381.905l-17.65-12.081l12.346-12.755L154.441,381.905z"/>
	<path fill="none" stroke="#000000" stroke-miterlimit="10" d="M154.441,381.905l-5.304-24.836l29.521-21.897L154.441,381.905z"/>
	<path fill="none" stroke="#000000" stroke-miterlimit="10" d="M154.441,381.905l24.216-46.733l35.233,34.372L154.441,381.905z"/>
	<path fill="none" stroke="#000000" stroke-miterlimit="10" d="M132.729,224.766l-19.96-20.247l27.242,3.351L132.729,224.766z"/>
	<path fill="none" stroke="#000000" stroke-miterlimit="10" d="M106.727,236.277L-0.946,225.319l52.662-83.59L106.727,236.277z"/>
	<path fill="none" stroke="#000000" stroke-miterlimit="10" d="M106.727,236.277l-55.01-94.548l61.053,62.79L106.727,236.277z"/>
	<path fill="none" stroke="#000000" stroke-miterlimit="10" d="M106.727,236.277l6.043-31.759l19.96,20.247L106.727,236.277z"/>
	<path fill="none" stroke="#000000" stroke-miterlimit="10" d="M253.545,77.217l27.133-47.058l16.961,45.824L253.545,77.217z"/>
	<path fill="none" stroke="#000000" stroke-miterlimit="10" d="M141.402,353.647l-7.828-1.204l8.75-1.361L141.402,353.647z"/>
	<path fill="none" stroke="#000000" stroke-miterlimit="10" d="M249.153,127.876l-26.793-26.21l34.167,10.969L249.153,127.876z"/>
	<path fill="none" stroke="#000000" stroke-miterlimit="10" d="M215.353,152.435l10.581-26.008l0.394,11.104L215.353,152.435z"/>
	<path fill="none" stroke="#000000" stroke-miterlimit="10" d="M215.353,152.435l10.975-14.903l17.12,9.752L215.353,152.435z"/>
	<path fill="none" stroke="#000000" stroke-miterlimit="10" d="M265.02,133.658l-16.359-1.293l15.141-3.718L265.02,133.658z"/>
	<path fill="none" stroke="#000000" stroke-miterlimit="10" d="M265.02,133.658l-1.219-5.011l18.23-9.725L265.02,133.658z"/>
	<path fill="none" stroke="#000000" stroke-miterlimit="10" d="M265.02,133.658l17.012-14.736l2.291,4.953L265.02,133.658z"/>
	<path fill="none" stroke="#000000" stroke-miterlimit="10" d="M248.66,132.365l0.493-4.489l14.647,0.771L248.66,132.365z"/>
	<path fill="none" stroke="#000000" stroke-miterlimit="10" d="M125.573,320.115l-24.183-23.533l21.536,7.021L125.573,320.115z"/>
	<path fill="none" stroke="#000000" stroke-miterlimit="10" d="M125.573,320.115l-2.646-16.512l3.275,3.322L125.573,320.115z"/>
	<path fill="none" stroke="#000000" stroke-miterlimit="10" d="M236.915,186.221l-29.651-30.57l4.073-0.442L236.915,186.221z"/>
	<path fill="none" stroke="#000000" stroke-miterlimit="10" d="M236.915,186.221l-25.578-31.012l4.016-2.773L236.915,186.221z"/>
	<path fill="none" stroke="#000000" stroke-miterlimit="10" d="M236.915,186.221l-21.562-33.786l32.257,10.993L236.915,186.221z"/>
	<path fill="none" stroke="#000000" stroke-miterlimit="10" d="M236.915,186.221l10.694-22.792l0.964,8.005L236.915,186.221z"/>
	<path fill="none" stroke="#000000" stroke-miterlimit="10" d="M248.573,171.433l-0.964-8.005l25.831-21.226L248.573,171.433z"/>
	<path fill="none" stroke="#000000" stroke-miterlimit="10" d="M-11.526,144.777l43.763-17.719v11.258L-11.526,144.777z"/>
	<path fill="none" stroke="#000000" stroke-miterlimit="10" d="M256.527,112.634l-34.167-10.969l31.185-24.449L256.527,112.634z"/>
	<path fill="none" stroke="#000000" stroke-miterlimit="10" d="M256.527,112.634l-2.982-35.417l13.913,25.033L256.527,112.634z"/>
	<path fill="none" stroke="#000000" stroke-miterlimit="10" d="M178.658,335.172l-41.502-4.527l32.593-34.062L178.658,335.172z"/>
	<path fill="none" stroke="#000000" stroke-miterlimit="10" d="M178.658,335.172l-8.909-38.59l1.654-1.513L178.658,335.172z"/>
	<path fill="none" stroke="#000000" stroke-miterlimit="10" d="M178.658,335.172l-7.255-40.103l20.098-23.497L178.658,335.172z"/>
	<path fill="none" stroke="#000000" stroke-miterlimit="10" d="M372.34,351.403l-129.411-87.255l107.396-100.613L372.34,351.403z"/>
	<path fill="none" stroke="#000000" stroke-miterlimit="10" d="M372.34,351.403l-22.015-187.868l-4.354-85.217L372.34,351.403z"/>
	<path fill="none" stroke="#000000" stroke-miterlimit="10" d="M247.609,163.428l-32.257-10.993l28.095-5.151L247.609,163.428z"/>
	<path fill="none" stroke="#000000" stroke-miterlimit="10" d="M247.609,163.428l-4.162-16.145l21.572-13.625L247.609,163.428z"/>
	<path fill="none" stroke="#000000" stroke-miterlimit="10" d="M247.609,163.428l17.41-29.77l8.421,8.544L247.609,163.428z"/>
	<path fill="none" stroke="#000000" stroke-miterlimit="10" d="M246.618,134.209l-18.006-5.562l20.541-0.771L246.618,134.209z"/>
	<path fill="none" stroke="#000000" stroke-miterlimit="10" d="M246.618,134.209l2.535-6.333l-0.493,4.489L246.618,134.209z"/>
	<path fill="none" stroke="#000000" stroke-miterlimit="10" d="M290.764,93.211l6.875-17.228l10.209,10.667L290.764,93.211z"/>
	<path fill="none" stroke="#000000" stroke-miterlimit="10" d="M290.764,93.211l17.084-6.561v4.577L290.764,93.211z"/>
	<path fill="none" stroke="#000000" stroke-miterlimit="10" d="M140.011,207.869l-27.242-3.351l94.494-48.868L140.011,207.869z"/>
	<path fill="none" stroke="#000000" stroke-miterlimit="10" d="M287.608,98.552l-5.631-4.15l8.786-1.191L287.608,98.552z"/>
	<path fill="none" stroke="#000000" stroke-miterlimit="10" d="M307.848,86.65l-10.209-10.667l3.601-0.394L307.848,86.65z"/>
	<path fill="none" stroke="#000000" stroke-miterlimit="10" d="M307.848,86.65l-6.608-11.062l23.7-35.98L307.848,86.65z"/>
	<path fill="none" stroke="#000000" stroke-miterlimit="10" d="M307.848,86.65l17.092-47.042l16.361,38.709L307.848,86.65z"/>
	<path fill="none" stroke="#000000" stroke-miterlimit="10" d="M307.848,91.228V86.65l33.453-8.333L307.848,91.228z"/>
	<path fill="none" stroke="#000000" stroke-miterlimit="10" d="M129.116,414.486l-52.181-31.958l47.515-14.28L129.116,414.486z"/>
	<path fill="none" stroke="#000000" stroke-miterlimit="10" d="M129.116,414.486l-4.666-46.238l11.043,34.283L129.116,414.486z"/>
	<path fill="none" stroke="#000000" stroke-miterlimit="10" d="M124.45,368.248l-8.311-29.382l17.435,13.577L124.45,368.248z"/>
	<path fill="none" stroke="#000000" stroke-miterlimit="10" d="M324.939,39.608l-44.262-9.45l44.251-21.286L324.939,39.608z"/>
	<path fill="none" stroke="#000000" stroke-miterlimit="10" d="M51.716,141.729l-19.479-3.413v-11.258L51.716,141.729z"/>
	<path fill="none" stroke="#000000" stroke-miterlimit="10" d="M51.716,141.729l-19.479-14.671l190.124-25.392L51.716,141.729z"/>
	<path fill="none" stroke="#000000" stroke-miterlimit="10" d="M32.237,127.058L324.929,8.873l-44.251,21.286L32.237,127.058z"/>
	<path fill="none" stroke="#000000" stroke-miterlimit="10" d="M32.237,127.058l248.441-96.899l-58.317,71.507L32.237,127.058z"/>
	<path fill="none" stroke="#000000" stroke-miterlimit="10" d="M133.575,352.443l-17.435-13.577l3.356-2.938L133.575,352.443z"/>
	<path fill="none" stroke="#000000" stroke-miterlimit="10" d="M133.575,352.443l-14.079-16.515l4.285-1.763L133.575,352.443z"/>
	<path fill="none" stroke="#000000" stroke-miterlimit="10" d="M133.575,352.443l-9.794-18.277l14.667,7.815L133.575,352.443z"/>
	<path fill="none" stroke="#000000" stroke-miterlimit="10" d="M133.575,352.443l4.873-10.462l3.877,9.101L133.575,352.443z"/>
	<path fill="none" stroke="#000000" stroke-miterlimit="10" d="M137.155,330.645l-6.972-7.789l-3.981-15.93L137.155,330.645z"/>
	<path fill="none" stroke="#000000" stroke-miterlimit="10" d="M137.155,330.645l-10.954-23.719l43.547-10.344L137.155,330.645z"/>
	<path fill="none" stroke="#000000" stroke-miterlimit="10" d="M171.402,295.069l0.266-1.062l19.832-22.436L171.402,295.069z"/>
	<path fill="none" stroke="#000000" stroke-miterlimit="10" d="M138.448,341.981l-14.667-7.815l13.375-3.521L138.448,341.981z"/>
	<path fill="none" stroke="#000000" stroke-miterlimit="10" d="M138.448,341.981l-1.292-11.337l41.502,4.527L138.448,341.981z"/>
	<path fill="none" stroke="#000000" stroke-miterlimit="10" d="M282.031,118.922l-17.517-3.827l2.943-12.846L282.031,118.922z"/>
	<path fill="none" stroke="#000000" stroke-miterlimit="10" d="M282.031,118.922l-14.573-16.672l15.908,4.022L282.031,118.922z"/>
	<path fill="none" stroke="#000000" stroke-miterlimit="10" d="M282.031,118.922l1.335-12.65h8.691L282.031,118.922z"/>
	<path fill="none" stroke="#000000" stroke-miterlimit="10" d="M225.341,424.967l-86.176-4.618l2.366-5.794L225.341,424.967z"/>
	<path fill="none" stroke="#000000" stroke-miterlimit="10" d="M225.341,424.967l-83.81-10.412l12.911-32.649L225.341,424.967z"/>
	<path fill="none" stroke="#000000" stroke-miterlimit="10" d="M225.341,424.967l-70.899-43.062l59.449-12.361L225.341,424.967z"/>
	<path fill="none" stroke="#000000" stroke-miterlimit="10" d="M225.341,424.967l-11.45-55.423l158.449-18.141L225.341,424.967z"/>
	<path fill="none" stroke="#000000" stroke-miterlimit="10" d="M345.972,78.318l-21.032-38.709l-0.011-30.736L345.972,78.318z"/>
	<path fill="none" stroke="#000000" stroke-miterlimit="10" d="M341.301,78.318l-16.361-38.709l21.032,38.709H341.301z"/>
	<path fill="none" stroke="#000000" stroke-miterlimit="10" d="M222.36,101.666l58.317-71.507l-27.133,47.058L222.36,101.666z"/>
	<path fill="none" stroke="#000000" stroke-miterlimit="10" d="M263.801,128.647l-14.647-0.771l7.374-15.242L263.801,128.647z"/>
	<path fill="none" stroke="#000000" stroke-miterlimit="10" d="M263.801,128.647l-7.273-16.013l7.987,2.461L263.801,128.647z"/>
	<path fill="none" stroke="#000000" stroke-miterlimit="10" d="M263.801,128.647l0.714-13.552l17.517,3.827L263.801,128.647z"/>
	<path fill="none" stroke="#000000" stroke-miterlimit="10" d="M228.612,128.647l-2.679-2.22l-3.573-24.762L228.612,128.647z"/>
	<path fill="none" stroke="#000000" stroke-miterlimit="10" d="M228.612,128.647l-6.252-26.981l26.793,26.21L228.612,128.647z"/>
	<path fill="none" stroke="#000000" stroke-miterlimit="10" d="M159.871,272.061l-53.144-35.783l26.003-11.512L159.871,272.061z"/>
	<path fill="none" stroke="#000000" stroke-miterlimit="10" d="M159.871,272.061l-27.141-47.295l7.282-16.896L159.871,272.061z"/>
	<path fill="none" stroke="#000000" stroke-miterlimit="10" d="M159.871,272.061l-19.859-64.191l52.129,52.226L159.871,272.061z"/>
	<path fill="none" stroke="#000000" stroke-miterlimit="10" d="M159.871,272.061l32.27-11.966l-0.64,11.478L159.871,272.061z"/>
</g>
</svg>
