<svg width="400px" height="400px"><g id="delaunay"><circle r="10" cx="334.69424922054657" cy="149.46485423949804"></circle><path d="M334.69424922054657,149.46485423949804L183.29313527752987,54.06989799048904L363.49570041123104,106.38563852207908Z"></path><circle r="10" cx="120.3069753384376" cy="196.06365459917188"></circle><path d="M120.3069753384376,196.06365459917188L148.0107352912517,56.51436117229264L183.29313527752987,54.06989799048904Z"></path><path d="M123.94372941267915,348.2984685272689L36.50880117643567,338.32844942698733L81.15596677076624,315.72594278842956Z"></path><circle r="10" cx="148.0107352912517" cy="56.51436117229264"></circle><circle r="10" cx="81.15596677076624" cy="315.72594278842956"></circle><path d="M123.94372941267915,348.2984685272689L81.15596677076624,315.72594278842956L120.3069753384376,196.06365459917188Z"></path><path d="M123.94372941267915,348.2984685272689L120.3069753384376,196.06365459917188L241.77855217350617,241.3585281736704Z"></path><circle r="10" cx="123.94372941267915" cy="348.2984685272689"></circle><path d="M123.94372941267915,348.2984685272689L241.77855217350617,241.3585281736704L352.1342441624205,236.530122640954Z"></path><circle r="10" cx="183.29313527752987" cy="54.06989799048904"></circle><circle r="10" cx="241.77855217350617" cy="241.3585281736704"></circle><path d="M241.77855217350617,241.3585281736704L120.3069753384376,196.06365459917188L183.29313527752987,54.06989799048904Z"></path><path d="M241.77855217350617,241.3585281736704L183.29313527752987,54.06989799048904L334.69424922054657,149.46485423949804Z"></path><circle r="10" cx="36.50880117643567" cy="338.32844942698733"></circle><path d="M241.77855217350617,241.3585281736704L334.69424922054657,149.46485423949804L352.1342441624205,236.530122640954Z"></path><path d="M36.50880117643567,338.32844942698733L148.0107352912517,56.51436117229264L120.3069753384376,196.06365459917188Z"></path><circle r="10" cx="352.1342441624205" cy="236.530122640954"></circle><path d="M36.50880117643567,338.32844942698733L120.3069753384376,196.06365459917188L81.15596677076624,315.72594278842956Z"></path><path d="M352.1342441624205,236.530122640954L334.69424922054657,149.46485423949804L363.49570041123104,106.38563852207908Z"></path><circle r="10" cx="363.49570041123104" cy="106.38563852207908"></circle></g></svg>