<?xml version="1.0" encoding="utf-8"?>
<!-- Generator: Adobe Illustrator 15.0.0, SVG Export Plug-In . SVG Version: 6.00 Build 0)  -->
<!DOCTYPE svg PUBLIC "-//W3C//DTD SVG 1.1//EN" "http://www.w3.org/Graphics/SVG/1.1/DTD/svg11.dtd">
<svg version="1.1" id="Layer_1" xmlns="http://www.w3.org/2000/svg" xmlns:xlink="http://www.w3.org/1999/xlink" x="0px" y="0px"
	 width="400px" height="400px" viewBox="0 0 400 400" enable-background="new 0 0 400 400" xml:space="preserve">
<g id="delaunay">
	<path fill="none" stroke="#000000" stroke-miterlimit="10" d="M334.694,149.465L183.293,54.07l180.203,52.316L334.694,149.465z"/>
	<path fill="none" stroke="#000000" stroke-miterlimit="10" d="M120.307,196.063l27.704-139.549l35.282-2.444L120.307,196.063z"/>
	<path fill="none" stroke="#000000" stroke-miterlimit="10" d="M123.944,348.299l-87.435-9.971l44.647-22.602L123.944,348.299z"/>
	<path fill="none" stroke="#000000" stroke-miterlimit="10" d="M123.944,348.299l-42.788-32.572l39.151-119.663L123.944,348.299z"/>
	<path fill="none" stroke="#000000" stroke-miterlimit="10" d="M123.944,348.299l-3.637-152.235l121.471,45.295L123.944,348.299z"/>
	<path fill="none" stroke="#000000" stroke-miterlimit="10" d="M123.944,348.299l117.834-106.94l110.355-4.828L123.944,348.299z"/>
	<path fill="none" stroke="#000000" stroke-miterlimit="10" d="M241.778,241.358l-121.471-45.295L183.293,54.07L241.778,241.358z"/>
	<path fill="none" stroke="#000000" stroke-miterlimit="10" d="M241.778,241.358L183.293,54.07l151.401,95.395L241.778,241.358z"/>
	<path fill="none" stroke="#000000" stroke-miterlimit="10" d="M241.778,241.358l92.916-91.894l17.439,87.065L241.778,241.358z"/>
	<path fill="none" stroke="#000000" stroke-miterlimit="10" d="M36.509,338.328L148.011,56.514l-27.704,139.549L36.509,338.328z"/>
	<path fill="none" stroke="#000000" stroke-miterlimit="10" d="M36.509,338.328l83.798-142.265L81.156,315.727L36.509,338.328z"/>
	<path fill="none" stroke="#000000" stroke-miterlimit="10" d="M352.134,236.53l-17.439-87.065l28.802-43.079L352.134,236.53z"/>
</g>
</svg>
